<?xml version="1.0" encoding="UTF-8" standalone="no"?>
<svg
   version="1.1"
   id="svg1"
   width="800"
   height="800"
   viewBox="600 200 1000 950"
   xmlns="http://www.w3.org/2000/svg"
   xmlns:svg="http://www.w3.org/2000/svg">
  <g id="layer-MC0">
    <path
       id="path1"
       d="M 0,0 -0.012,0.01 -0.07,0.072 C -35.202,35.284 -35.182,92.306 0,127.488 c -35.182,35.181 -35.202,92.203 -0.07,127.413 l 0.058,0.061 0.012,0.014 c 11.305,-27.88 28.261,-54.002 50.874,-76.615 22.609,-22.61 48.734,-39.568 76.611,-50.873 C 99.608,116.183 73.483,99.225 50.874,76.612 28.261,54.002 11.305,27.879 0,0 m -32.517,-55.339 h -0.017 l -0.085,0.002 c -49.741,0.055 -90.048,40.392 -90.048,90.146 -49.75,0 -90.086,40.306 -90.143,90.045 l -0.002,0.085 v 0.018 c 27.706,-11.719 58.169,-18.2 90.145,-18.2 31.977,0 62.442,6.481 90.148,18.198 -11.717,-27.705 -18.2,-58.17 -18.2,-90.146 0,-31.976 6.483,-62.439 18.202,-90.148 m 16.137,-62.123 -0.011,-0.011 -0.062,-0.059 c -35.21,-35.134 -92.234,-35.11 -127.415,0.07 -35.18,-35.18 -92.204,-35.204 -127.414,-0.07 l -0.061,0.059 -0.012,0.011 c 27.878,11.306 54.004,28.263 76.613,50.874 22.611,22.612 39.569,48.734 50.874,76.613 11.306,-27.879 28.263,-54.001 50.874,-76.613 22.612,-22.611 48.733,-39.568 76.614,-50.874 m 55.338,-32.517 v -0.017 l -10e-4,-0.085 c -0.057,-49.739 -40.392,-90.044 -90.144,-90.044 0,-49.755 -40.307,-90.092 -90.046,-90.147 h -0.086 -0.016 c 11.718,27.706 18.2,58.17 18.2,90.147 0,31.976 -6.482,62.438 -18.2,90.145 27.707,-11.717 58.169,-18.198 90.148,-18.198 31.977,0 62.437,6.481 90.145,18.199 m 62.126,16.139 0.01,-0.014 0.057,-0.061 c 35.133,-35.21 35.113,-92.232 -0.067,-127.415 35.18,-35.183 35.2,-92.206 0.067,-127.414 l -0.057,-0.06 -0.01,-0.013 c -11.308,27.883 -28.265,54.002 -50.876,76.611 -22.609,22.611 -48.734,39.57 -76.612,50.876 27.878,11.304 54.003,28.264 76.612,50.876 22.611,22.611 39.568,48.733 50.876,76.614 m 32.515,55.336 h 0.017 0.084 c 49.741,-0.056 90.048,-40.392 90.048,-90.146 49.751,0 90.091,-40.306 90.146,-90.048 v -0.085 -0.017 c -27.706,11.724 -58.169,18.202 -90.146,18.202 -31.977,0 -62.439,-6.478 -90.149,-18.202 11.719,27.712 18.199,58.175 18.199,90.15 0,31.977 -6.48,62.439 -18.199,90.146 m -16.137,62.123 0.009,0.012 0.064,0.061 c 35.21,35.133 92.232,35.112 127.416,-0.073 35.18,35.185 92.201,35.206 127.41,0.073 l 0.066,-0.061 0.011,-0.012 c -27.881,-11.302 -54.007,-28.261 -76.612,-50.871 -22.613,-22.612 -39.573,-48.735 -50.875,-76.613 -11.307,27.878 -28.266,54.001 -50.876,76.613 -22.611,22.61 -48.734,39.569 -76.613,50.871 M 62.121,16.137 v 0.015 l 0.004,0.088 c 0.051,49.74 40.391,90.046 90.146,90.046 0,49.753 40.306,90.09 90.043,90.145 l 0.084,0.003 h 0.018 c -11.719,-27.71 -18.199,-58.172 -18.199,-90.148 0,-31.977 6.48,-62.439 18.199,-90.146 -27.706,11.719 -58.169,18.199 -90.145,18.198 -31.976,10e-4 -62.438,-6.479 -90.15,-18.201"
       style="fill:#5cc8bd;fill-opacity:1;fill-rule:evenodd;stroke:none"
       transform="matrix(1.3333333,0,0,-1.3333333,1104.2645,651.07373)" />
  </g>
</svg>