<?xml version="1.0" encoding="UTF-8" standalone="no"?>
<!-- Created with Inkscape (http://www.inkscape.org/) -->

<svg
   version="1.1"
   id="svg1"
   width="2343.312"
   height="1965.3652"
   viewBox="0 0 2343.312 1965.3652"
   sodipodi:docname="upload_oglcde33fmiqdnmtaxewq4tleg.pdf"
   xmlns:inkscape="http://www.inkscape.org/namespaces/inkscape"
   xmlns:sodipodi="http://sodipodi.sourceforge.net/DTD/sodipodi-0.dtd"
   xmlns="http://www.w3.org/2000/svg"
   xmlns:svg="http://www.w3.org/2000/svg">
  <defs
     id="defs1">
    <clipPath
       clipPathUnits="userSpaceOnUse"
       id="clipPath2">
      <path
         d="M 0,1615.752 H 1899.213 V 0 H 0 Z"
         transform="translate(-899.0645,-1056.5786)"
         id="path2" />
    </clipPath>
    <clipPath
       clipPathUnits="userSpaceOnUse"
       id="clipPath4">
      <path
         d="M 0,1615.752 H 1899.213 V 0 H 0 Z"
         transform="translate(-632.65092,-613.44339)"
         id="path4" />
    </clipPath>
    <clipPath
       clipPathUnits="userSpaceOnUse"
       id="clipPath6">
      <path
         d="M 0,1615.752 H 1899.213 V 0 H 0 Z"
         transform="translate(-749.00442,-593.52931)"
         id="path6" />
    </clipPath>
    <clipPath
       clipPathUnits="userSpaceOnUse"
       id="clipPath8">
      <path
         d="M 0,1615.752 H 1899.213 V 0 H 0 Z"
         transform="translate(-923.0078,-524.60641)"
         id="path8" />
    </clipPath>
    <clipPath
       clipPathUnits="userSpaceOnUse"
       id="clipPath10">
      <path
         d="M 0,1615.752 H 1899.213 V 0 H 0 Z"
         transform="translate(-1269.4424,-472.98241)"
         id="path10" />
    </clipPath>
    <clipPath
       clipPathUnits="userSpaceOnUse"
       id="clipPath12">
      <path
         d="M 0,1615.752 H 1899.213 V 0 H 0 Z"
         transform="translate(-1463.0968,-472.98241)"
         id="path12" />
    </clipPath>
  </defs>
  <sodipodi:namedview
     id="namedview1"
     pagecolor="#ffffff"
     bordercolor="#000000"
     borderopacity="0.25"
     inkscape:showpageshadow="2"
     inkscape:pageopacity="0.0"
     inkscape:pagecheckerboard="0"
     inkscape:deskcolor="#d1d1d1">
    <inkscape:page
       x="0"
       y="0"
       inkscape:label="1"
       id="page1"
       width="2343.312"
       height="1965.3652"
       margin="231.69986 483.85333 311.12 483.84921"
       bleed="94.488136 94.480003 94.480003 94.488136" />
  </sodipodi:namedview>
  <g
     id="layer-MC0"
     inkscape:groupmode="layer"
     inkscape:label="Layer 1">
    <path
       id="path1"
       d="M 0,0 -0.012,0.01 -0.07,0.072 C -35.202,35.284 -35.182,92.306 0,127.488 c -35.182,35.181 -35.202,92.203 -0.07,127.413 l 0.058,0.061 0.012,0.014 c 11.305,-27.88 28.261,-54.002 50.874,-76.615 22.609,-22.61 48.734,-39.568 76.611,-50.873 C 99.608,116.183 73.483,99.225 50.874,76.612 28.261,54.002 11.305,27.879 0,0 m -32.517,-55.339 h -0.017 l -0.085,0.002 c -49.741,0.055 -90.048,40.392 -90.048,90.146 -49.75,0 -90.086,40.306 -90.143,90.045 l -0.002,0.085 v 0.018 c 27.706,-11.719 58.169,-18.2 90.145,-18.2 31.977,0 62.442,6.481 90.148,18.198 -11.717,-27.705 -18.2,-58.17 -18.2,-90.146 0,-31.976 6.483,-62.439 18.202,-90.148 m 16.137,-62.123 -0.011,-0.011 -0.062,-0.059 c -35.21,-35.134 -92.234,-35.11 -127.415,0.07 -35.18,-35.18 -92.204,-35.204 -127.414,-0.07 l -0.061,0.059 -0.012,0.011 c 27.878,11.306 54.004,28.263 76.613,50.874 22.611,22.612 39.569,48.734 50.874,76.613 11.306,-27.879 28.263,-54.001 50.874,-76.613 22.612,-22.611 48.733,-39.568 76.614,-50.874 m 55.338,-32.517 v -0.017 l -10e-4,-0.085 c -0.057,-49.739 -40.392,-90.044 -90.144,-90.044 0,-49.755 -40.307,-90.092 -90.046,-90.147 h -0.086 -0.016 c 11.718,27.706 18.2,58.17 18.2,90.147 0,31.976 -6.482,62.438 -18.2,90.145 27.707,-11.717 58.169,-18.198 90.148,-18.198 31.977,0 62.437,6.481 90.145,18.199 m 62.126,16.139 0.01,-0.014 0.057,-0.061 c 35.133,-35.21 35.113,-92.232 -0.067,-127.415 35.18,-35.183 35.2,-92.206 0.067,-127.414 l -0.057,-0.06 -0.01,-0.013 c -11.308,27.883 -28.265,54.002 -50.876,76.611 -22.609,22.611 -48.734,39.57 -76.612,50.876 27.878,11.304 54.003,28.264 76.612,50.876 22.611,22.611 39.568,48.733 50.876,76.614 m 32.515,55.336 h 0.017 0.084 c 49.741,-0.056 90.048,-40.392 90.048,-90.146 49.751,0 90.091,-40.306 90.146,-90.048 v -0.085 -0.017 c -27.706,11.724 -58.169,18.202 -90.146,18.202 -31.977,0 -62.439,-6.478 -90.149,-18.202 11.719,27.712 18.199,58.175 18.199,90.15 0,31.977 -6.48,62.439 -18.199,90.146 m -16.137,62.123 0.009,0.012 0.064,0.061 c 35.21,35.133 92.232,35.112 127.416,-0.073 35.18,35.185 92.201,35.206 127.41,0.073 l 0.066,-0.061 0.011,-0.012 c -27.881,-11.302 -54.007,-28.261 -76.612,-50.871 -22.613,-22.612 -39.573,-48.735 -50.875,-76.613 -11.307,27.878 -28.266,54.001 -50.876,76.613 -22.611,22.61 -48.734,39.569 -76.613,50.871 M 62.121,16.137 v 0.015 l 0.004,0.088 c 0.051,49.74 40.391,90.046 90.146,90.046 0,49.753 40.306,90.09 90.043,90.145 l 0.084,0.003 h 0.018 c -11.719,-27.71 -18.199,-58.172 -18.199,-90.148 0,-31.977 6.48,-62.439 18.199,-90.146 -27.706,11.719 -58.169,18.199 -90.145,18.198 -31.976,10e-4 -62.438,-6.479 -90.15,-18.201"
       style="fill:#5cc8bd;fill-opacity:1;fill-rule:evenodd;stroke:none"
       transform="matrix(1.3333333,0,0,-1.3333333,1104.2645,651.07373)"
       clip-path="url(#clipPath2)" />
    <path
       id="path3"
       d="m 0,0 c 2.624,0 3.936,-1.309 3.936,-3.932 v -7.861 c 0,-2.619 -1.312,-3.929 -3.936,-3.929 -4.89,0 -8.778,-2.405 -11.658,-7.208 -2.886,-4.806 -5.55,-10.527 -7.996,-17.163 l -56.339,-153.305 c -0.702,-2.094 -2.188,-3.143 -4.455,-3.143 h -31.71 c -2.097,0 -3.584,1.049 -4.453,3.143 l -58.963,153.305 c -2.621,6.812 -5.289,12.578 -7.994,17.295 -2.712,4.719 -6.51,7.076 -11.4,7.076 -2.621,0 -3.93,1.31 -3.93,3.929 v 7.861 c 0,2.623 1.309,3.932 3.93,3.932 h 80.453 c 2.621,0 3.93,-1.309 3.93,-3.932 v -7.861 c 0,-2.619 -1.309,-3.929 -3.93,-3.929 -5.419,0 -10.179,-1.704 -14.284,-5.109 -4.107,-3.408 -6.157,-7.732 -6.157,-12.975 0,-1.923 0.787,-4.892 2.357,-8.91 l 44.55,-116.876 42.19,119.499 c 0.699,2.094 1.049,4.279 1.049,6.552 0,5.062 -2.056,9.302 -6.157,12.71 -4.11,3.405 -8.871,5.109 -14.284,5.109 -2.619,0 -3.931,1.31 -3.931,3.929 v 7.861 c 0,2.623 1.312,3.932 3.931,3.932 z"
       style="fill:#ffffff;fill-opacity:1;fill-rule:nonzero;stroke:none"
       transform="matrix(1.3333333,0,0,-1.3333333,749.0464,1241.9207)"
       clip-path="url(#clipPath4)" />
    <path
       id="path5"
       d="m 0,0 c -17.471,0 -31.013,-5.813 -40.621,-17.428 -9.608,-11.623 -14.411,-26.952 -14.411,-45.992 0,-7.516 0.787,-15.551 2.361,-24.107 1.569,-8.564 3.969,-16.903 7.206,-25.028 3.23,-8.126 7.378,-15.504 12.448,-22.146 5.063,-6.64 11.006,-11.967 17.818,-15.981 6.815,-4.021 14.674,-6.031 23.584,-6.031 11.882,0 21.969,2.661 30.269,7.992 8.297,5.328 14.588,12.753 18.868,22.279 4.278,9.519 6.421,20.481 6.421,32.884 0,6.816 -0.745,14.417 -2.23,22.803 -1.483,8.384 -3.845,16.723 -7.073,25.024 -3.235,8.295 -7.338,15.895 -12.316,22.801 -4.982,6.898 -10.969,12.447 -17.953,16.64 C 17.381,-2.098 9.26,0 0,0 m 2.881,23.059 c 13.804,0 26.773,-2.708 38.918,-8.121 12.139,-5.417 22.8,-12.886 31.971,-22.406 9.171,-9.524 16.331,-20.487 21.487,-32.889 5.154,-12.408 7.734,-25.596 7.734,-39.573 0,-13.977 -2.537,-27.039 -7.602,-39.175 -5.07,-12.144 -12.1,-22.76 -21.094,-31.842 -9.002,-9.084 -19.353,-16.208 -31.056,-21.356 -11.703,-5.152 -24.198,-7.733 -37.472,-7.733 -13.805,0 -26.774,2.714 -38.918,8.127 -12.143,5.411 -22.758,12.881 -31.839,22.404 -9.084,9.52 -16.206,20.483 -21.358,32.89 -5.156,12.402 -7.727,25.505 -7.727,39.307 0,13.628 2.443,26.466 7.335,38.52 4.889,12.059 11.747,22.756 20.572,32.104 8.82,9.346 19.086,16.64 30.791,21.881 11.701,5.242 24.456,7.862 38.258,7.862"
       style="fill:#ffffff;fill-opacity:1;fill-rule:nonzero;stroke:none"
       transform="matrix(1.3333333,0,0,-1.3333333,904.1844,1268.4728)"
       clip-path="url(#clipPath6)" />
    <path
       id="path7"
       d="m 0,0 c 0,-9.608 1.048,-19.436 3.147,-29.48 2.095,-10.049 5.413,-19.352 9.956,-27.912 4.542,-8.561 10.393,-15.42 17.56,-20.57 7.161,-5.154 15.805,-7.73 25.941,-7.73 3.842,0 8.084,0.478 12.709,1.442 4.628,0.959 8.65,2.619 12.058,4.978 3.405,2.358 5.11,5.544 5.11,9.566 v 13.629 c 0,9.953 -1.403,17.03 -4.193,21.223 -2.796,4.192 -6.337,6.726 -10.614,7.601 -4.285,0.873 -8.695,1.309 -13.232,1.309 h -1.838 c -2.619,0 -3.928,1.309 -3.928,3.931 v 7.863 c 0,2.618 1.309,3.932 3.928,3.932 h 82.548 c 2.621,0 3.935,-1.314 3.935,-3.932 v -7.863 c 0,-2.622 -1.314,-3.931 -3.935,-3.931 h -2.094 c -4.547,0 -6.815,-2.883 -6.815,-8.646 v -28.306 c -5.942,-13.974 -15.811,-25.508 -29.614,-34.589 -13.801,-9.084 -30.659,-13.628 -50.577,-13.628 -14.672,0 -27.865,2.539 -39.569,7.601 -11.708,5.067 -21.665,12.14 -29.876,21.229 -8.21,9.081 -14.501,19.653 -18.866,31.706 -4.37,12.056 -6.553,25.067 -6.553,39.045 0,8.734 0.959,17.91 2.883,27.518 1.92,9.607 5.112,18.91 9.565,27.908 4.457,8.997 10.392,17.122 17.819,24.373 7.423,7.247 16.596,13.012 27.52,17.295 10.914,4.278 23.885,6.419 38.916,6.419 12.578,0 23.45,-1.57 32.624,-4.717 9.171,-3.144 16.814,-7.165 22.93,-12.054 6.112,-4.892 10.962,-9.96 14.544,-15.197 3.579,-5.242 6.159,-10.092 7.729,-14.544 1.574,-4.458 2.358,-7.823 2.358,-10.092 0,-1.569 -0.391,-2.708 -1.176,-3.403 -0.788,-0.704 -1.881,-1.315 -3.276,-1.839 L 95.65,18.87 c -0.698,-0.179 -1.441,-0.396 -2.223,-0.656 -0.791,-0.265 -1.617,-0.393 -2.493,-0.393 -0.7,0 -1.398,0.128 -2.094,0.393 -0.704,0.26 -1.049,1.003 -1.049,2.225 0,0.876 0.085,1.968 0.26,3.276 0.175,1.31 0.263,3.101 0.263,5.376 0,12.053 -3.19,22.097 -9.566,30.133 C 72.367,67.26 62.72,71.282 49.792,71.282 39.833,71.282 31.098,68.267 23.586,62.239 16.073,56.212 10.261,47.865 6.158,37.212 2.051,26.552 0,14.153 0,0"
       style="fill:#ffffff;fill-opacity:1;fill-rule:nonzero;stroke:none"
       transform="matrix(1.3333333,0,0,-1.3333333,1136.1889,1360.37)"
       clip-path="url(#clipPath8)" />
    <path
       id="path9"
       d="m 0,0 c 1.574,-0.876 2.359,-1.836 2.359,-2.885 0,-0.699 -0.259,-1.568 -0.785,-2.619 l -24.636,-51.887 c -0.699,-1.573 -1.746,-2.358 -3.143,-2.358 -0.875,0 -1.665,0.35 -2.358,1.05 l -1.311,1.308 c -0.872,0.875 -2.619,1.311 -5.241,1.311 h -143.342 c -2.623,0 -3.932,1.309 -3.932,3.933 v 7.859 c 0,2.62 1.309,3.931 3.932,3.931 h 0.52 c 12.583,0 18.871,8.294 18.871,24.895 V 99.58 c 0,16.595 -6.383,24.897 -19.129,24.897 h -0.262 c -2.623,0 -3.932,1.307 -3.932,3.931 v 7.861 c 0,2.794 1.309,4.192 3.932,4.192 H -47.17 c 2.27,0 3.933,0.436 4.978,1.31 l 1.576,1.309 c 0.522,0.525 1.22,0.79 2.096,0.79 1.397,0 2.53,-0.699 3.405,-2.099 l 20.702,-35.64 c 0.526,-0.699 0.785,-1.485 0.785,-2.359 0,-1.224 -0.699,-2.268 -2.093,-3.144 l -10.484,-5.767 c -1.223,-0.699 -2.184,-1.044 -2.883,-1.044 -1.224,0 -2.269,0.785 -3.143,2.358 l -0.787,1.31 c -5.416,9.08 -11.229,15.414 -17.426,18.997 -6.202,3.579 -14.373,5.373 -24.506,5.373 h -42.451 V 60.271 h 23.063 c 7.861,0 13.972,1.484 18.344,4.457 4.365,2.969 6.552,7.335 6.552,13.102 v 1.834 c 0,2.619 1.31,3.934 3.927,3.934 h 7.862 c 2.624,0 3.934,-1.315 3.934,-3.934 V 20.178 c 0,-2.619 -1.31,-3.932 -3.934,-3.932 h -7.862 c -2.617,0 -3.927,1.313 -3.927,3.932 v 1.573 c 0,5.937 -2.143,10.353 -6.423,13.231 -4.282,2.884 -10.441,4.326 -18.473,4.326 h -23.063 v -51.886 c 0,-16.603 6.028,-24.897 18.081,-24.897 h 17.035 c 12.93,0 23.454,1.219 31.581,3.666 8.12,2.45 14.936,6.552 20.438,12.319 5.502,5.766 10.697,13.537 15.594,23.323 l 0.785,1.573 c 0.869,1.394 2.004,2.094 3.408,2.094 0.87,0 1.57,-0.175 2.094,-0.519 z"
       style="fill:#ffffff;fill-opacity:1;fill-rule:nonzero;stroke:none"
       transform="matrix(1.3333333,0,0,-1.3333333,1598.1017,1429.202)"
       clip-path="url(#clipPath10)" />
    <path
       id="path11"
       d="M 0,0 C 1.58,-0.701 2.364,-1.749 2.364,-3.146 2.364,-3.318 2.317,-3.537 2.23,-3.8 2.142,-4.062 1.924,-4.632 1.58,-5.504 l -24.637,-51.887 c -0.7,-1.573 -1.749,-2.358 -3.149,-2.358 -0.349,0 -0.784,0.132 -1.308,0.394 -0.525,0.259 -1.31,0.917 -2.36,1.964 -0.874,0.875 -2.618,1.311 -5.242,1.311 h -131.287 c -2.62,0 -3.934,1.309 -3.934,3.933 v 7.859 c 0,2.62 1.314,3.931 3.934,3.931 12.927,0 19.392,8.294 19.392,24.895 V 99.58 c 0,16.595 -6.465,24.897 -19.392,24.897 -2.62,0 -3.934,1.307 -3.934,3.931 v 7.861 c 0,2.794 1.314,4.192 3.934,4.192 h 79.4 c 3.32,0 4.982,-1.398 4.982,-4.192 v -7.861 c 0,-2.624 -1.573,-3.931 -4.716,-3.931 h -18.605 V -12.578 c 0,-16.603 6.028,-24.897 18.08,-24.897 h 10.22 c 12.752,0 24.457,2.75 35.115,8.257 10.655,5.501 19.739,15.853 27.255,31.051 l 0.785,1.573 c 0.875,1.575 1.918,2.361 3.143,2.361 0.874,0 1.66,-0.267 2.359,-0.786 z"
       style="fill:#ffffff;fill-opacity:1;fill-rule:nonzero;stroke:none"
       transform="matrix(1.3333333,0,0,-1.3333333,1856.3075,1429.202)"
       clip-path="url(#clipPath12)" />
    <path
       id="path13"
       d="M 7.1709219,-65.694314 V 9.984375e-4 H 15.913109 V -30.081033 h 30.175782 v -7.359375 H 15.913109 v -20.894531 h 34.40625 v -7.359375 z m 77.4697261,38.554687 11.132813,-30.632812 h 0.1875 l 10.945309,30.632812 z M 91.167992,-65.694314 65.59768,9.984375e-4 h 8.917968 L 81.886742,-19.780252 H 109.6719 l 7.17187,19.7812504375 h 9.65625 L 100.83596,-65.694314 Z m 60.354488,0 V 9.984375e-4 h 8.28516 V -54.643533 h 0.17578 L 180.50295,9.984375e-4 h 7.45313 L 208.47561,-54.643533 h 0.1875 V 9.984375e-4 h 8.27344 V -65.694314 h -11.95313 l -20.80078,55.207031 -20.69531,-55.207031 z m 98.72168,0 V 9.984375e-4 h 8.74219 V -65.694314 Z m 41.85059,0 V 9.984375e-4 h 43.52344 V -7.3583766 H 300.83694 V -65.694314 Z m 86.48145,38.835937 25.125,-38.835937 h -9.9375 l -19.23047,31.289062 -19.6875,-31.289062 H 344.4512 l 25.39453,38.835937 V 9.984375e-4 h 8.73047 z M 488.33401,-58.334939 V 9.984375e-4 h 8.74219 V -58.334939 h 21.90234 v -7.359375 h -52.53516 v 7.359375 z m 56.30273,-7.359375 V 9.984375e-4 h 8.74219 V -28.065408 h 21.35156 c 2.13867,0 3.85547,0.325196 5.14453,0.972656 1.28907,0.641602 2.33203,1.5 3.12891,2.578125 0.79687,1.072266 1.37695,2.329102 1.74609,3.773438 0.375,1.438477 0.68262,2.953125 0.92578,4.546875 0.30469,1.59375 0.48633,3.219727 0.55079,4.875 0.0615,1.6582031 0.12304,3.2080078 0.1875,4.6523437 0.0615,1.4384766 0.19921,2.7421875 0.41015,3.9140625 0.2168,1.1660156 0.63281,2.0830078 1.24219,2.7539062375 h 9.75 C 596.89358,-1.1005641 596.20217,-2.3691187 595.74221,-3.8075953 c -0.4541,-1.4443359 -0.80566,-2.9648438 -1.05469,-4.5585938 -0.24316,-1.5996093 -0.3955,-3.2285159 -0.45703,-4.8867189 -0.0645,-1.655273 -0.15234,-3.28125 -0.26953,-4.875 -0.1875,-1.59375 -0.45117,-3.123047 -0.78516,-4.59375 -0.33691,-1.476562 -0.86132,-2.8125 -1.57031,-4.007812 -0.70312,-1.195313 -1.65234,-2.220703 -2.84765,-3.082032 -1.19532,-0.858398 -2.74805,-1.470703 -4.65235,-1.839843 v -0.175782 c 3.99024,-1.107421 6.89063,-3.164062 8.69531,-6.164062 1.81055,-3.005859 2.71875,-6.503906 2.71875,-10.488281 0,-5.34375 -1.7666,-9.544922 -5.29687,-12.609375 -3.52441,-3.070313 -8.41406,-4.605469 -14.67188,-4.605469 z m 26.96485,30.269531 h -18.22266 v -22.910156 h 21.71484 c 4.10743,0 7.08106,1.042969 8.91797,3.128906 1.84278,2.085938 2.76563,4.78711 2.76563,8.097656 0,2.390625 -0.41602,4.341797 -1.24219,5.847657 -0.8291,1.5 -1.93359,2.695312 -3.31641,3.585937 -1.37695,0.890625 -2.98535,1.488281 -4.82812,1.792969 -1.83692,0.304687 -3.76758,0.457031 -5.78906,0.457031 z m 65.77441,8.285156 11.13281,-30.632812 h 0.1875 l 10.94531,30.632812 z M 643.90334,-65.694314 618.33303,9.984375e-4 H 627.251 L 634.62209,-19.780252 h 27.78516 l 7.17187,19.7812504375 h 9.65625 L 653.57131,-65.694314 Z M 725.70315,9.984375e-4 749.07034,-65.694314 h -9.11719 l -18.94922,56.9531249 h -0.1875 L 702.05471,-65.694314 h -9.38672 L 715.76565,9.984375e-4 Z M 774.45315,-65.694314 V 9.984375e-4 h 45.63281 V -7.3583766 H 783.19534 V -30.081033 h 34.13671 v -7.359375 h -34.13671 v -20.894531 h 36.62109 v -7.359375 z m 74.61035,0 V 9.984375e-4 h 43.52344 V -7.3583766 H 857.80569 V -65.694314 Z m 0,0"
       style="fill:#ffffff;fill-opacity:1;fill-rule:nonzero;stroke:none"
       aria-label="FAMILY TRAVEL"
       transform="matrix(1.3333333,0,0,1.3333333,596.1772,1674.6551)" />
  </g>
</svg>
